<?xml version="1.0" standalone="no"?>
<!DOCTYPE svg PUBLIC "-//W3C//DTD SVG 20010904//EN"
 "http://www.w3.org/TR/2001/REC-SVG-20010904/DTD/svg10.dtd">
<svg version="1.0" xmlns="http://www.w3.org/2000/svg"
 width="395.000000pt" height="481.000000pt" viewBox="0 0 395.000000 481.000000"
 preserveAspectRatio="xMidYMid meet">

<g transform="translate(0.000000,481.000000) scale(0.100000,-0.100000)"
fill="#000000" stroke="none">
<path d="M0 3595 c0 -1371 -8 -1226 80 -1399 136 -266 342 -468 603 -592 69
-32 77 -39 70 -58 -4 -11 -7 -34 -8 -51 0 -33 5 -34 82 -22 38 6 41 5 36 -13
-8 -29 25 -26 37 3 8 20 9 19 9 -9 1 -38 -16 -45 -94 -37 -64 7 -105 -2 -105
-22 0 -8 -4 -15 -10 -15 -5 0 -10 -6 -10 -14 0 -18 -26 -39 -53 -43 -11 -2
-25 -7 -31 -12 -19 -16 -98 12 -161 56 -140 98 -173 127 -276 238 -50 55 -129
160 -129 172 0 4 -9 19 -20 33 l-20 25 0 -40 c0 -29 3 -36 10 -25 6 9 10 10
10 3 0 -6 -4 -15 -10 -18 -15 -9 -13 -122 3 -128 9 -4 9 -7 -1 -18 -8 -9 -12
-52 -12 -138 0 -119 1 -124 15 -96 9 17 30 47 48 68 30 36 34 38 61 27 16 -6
44 -23 62 -38 17 -15 51 -40 74 -57 23 -16 48 -43 55 -60 7 -16 14 -24 14 -17
1 6 5 12 11 12 13 0 0 -30 -14 -30 -6 -1 -28 -22 -49 -48 -20 -26 -50 -63 -67
-82 -16 -19 -33 -40 -37 -45 -48 -62 -63 -85 -63 -94 0 -6 -4 -11 -10 -11 -5
0 -10 -5 -10 -11 0 -6 -7 -17 -15 -26 -9 -8 -13 -18 -10 -21 3 -3 12 3 20 14
137 180 236 291 231 259 -1 -9 -7 -20 -12 -23 -15 -10 -15 -52 0 -52 14 0 14
-35 -1 -70 -6 -14 -9 -28 -6 -32 2 -5 0 -8 -6 -8 -5 0 -13 -15 -16 -33 -4 -17
-14 -44 -21 -59 -12 -24 -12 -27 0 -22 8 3 20 19 27 36 7 17 22 42 33 57 12
14 26 35 33 46 117 194 125 205 145 205 17 0 19 -4 14 -27 -4 -16 -8 -36 -9
-46 -1 -10 -7 -15 -13 -13 -14 5 -43 -71 -45 -113 0 -14 -3 -20 -6 -13 -8 19
-23 3 -23 -24 0 -14 -7 -32 -15 -40 -8 -9 -15 -20 -15 -25 0 -18 20 -8 37 19
10 15 23 33 30 40 7 7 13 18 13 24 0 6 12 8 30 4 19 -3 29 -2 25 4 -3 6 -16
10 -27 10 -12 0 -18 3 -14 7 4 5 22 8 39 8 20 0 31 5 30 12 -2 7 2 13 7 13 6
0 10 5 10 10 0 6 -9 10 -20 10 -11 0 -20 7 -20 15 0 8 7 15 15 15 8 0 15 -4
15 -10 0 -5 5 -10 10 -10 6 0 10 7 10 15 0 8 5 15 10 15 6 0 10 12 10 28 1 24
2 25 11 9 6 -10 8 -26 4 -35 -3 -9 -8 -43 -10 -77 -5 -66 -26 -157 -51 -220
-51 -126 -102 -259 -109 -283 -6 -20 -114 -239 -143 -287 -18 -32 -62 -135
-60 -143 2 -12 -14 -45 -38 -77 -12 -16 -25 -40 -29 -52 -6 -22 -4 -23 49 -23
35 0 56 4 56 11 0 7 9 30 19 53 11 23 34 79 51 126 17 47 40 103 51 126 10 22
19 46 19 52 0 7 4 12 8 12 4 0 16 26 27 58 10 31 22 62 25 67 4 6 15 37 25 70
10 33 21 65 24 70 4 6 13 28 20 50 13 40 24 67 55 135 25 55 56 162 56 193 0
20 6 30 18 34 16 4 19 15 20 66 2 89 3 96 20 90 24 -10 7 -103 -49 -263 -28
-80 -61 -182 -74 -227 -14 -44 -34 -105 -45 -135 -12 -29 -43 -116 -70 -193
-66 -187 -104 -292 -124 -337 -9 -21 -16 -42 -16 -48 0 -6 49 -10 138 -10 132
1 136 1 116 18 -39 33 -56 85 -56 174 0 88 -5 108 -20 87 -7 -10 -8 -8 -3 6 3
11 9 32 12 48 3 15 8 27 12 27 3 0 7 16 8 36 1 19 6 41 11 47 19 24 40 107 36
136 -3 17 -2 31 3 31 4 0 9 12 9 28 3 62 19 80 91 102 89 27 217 47 276 42 71
-6 63 -23 -38 -77 -38 -21 -76 -47 -83 -57 -10 -14 -21 -18 -41 -13 -34 7 -60
-18 -68 -69 -4 -27 -1 -42 12 -56 12 -13 14 -20 5 -20 -9 0 -8 -7 4 -25 15
-23 15 -27 1 -41 -11 -12 -15 -38 -15 -110 l0 -94 -32 0 c-18 0 -50 -3 -70 -6
-37 -6 -38 -8 -38 -50 0 -23 6 -46 13 -51 6 -4 39 -8 71 -8 64 0 64 0 68 -72
1 -33 21 -45 31 -20 4 9 6 9 6 0 1 -9 22 -13 71 -13 l70 0 -3 28 c-2 15 -7 33
-11 40 -4 7 -2 12 3 12 6 0 11 12 11 27 l0 28 24 -25 c13 -14 26 -39 29 -56 5
-26 2 -33 -16 -42 -18 -9 -12 -11 36 -11 62 -1 62 -2 26 49 -17 25 -16 26 12
54 28 28 42 85 18 70 -8 -5 -10 3 -5 27 16 89 18 109 10 109 -14 0 -15 121 -2
148 9 18 9 28 0 42 -17 28 -15 87 3 94 8 3 20 17 25 32 9 22 7 29 -10 44 -11
9 -20 22 -20 27 0 15 28 37 52 40 17 3 20 -1 16 -22 -4 -17 0 -26 12 -30 10
-3 20 -15 23 -25 3 -11 1 -18 -4 -14 -5 3 -9 0 -9 -6 0 -7 -7 -10 -15 -7 -8 4
-17 1 -21 -5 -4 -7 -3 -8 4 -4 16 10 15 -5 -2 -27 -16 -20 -9 -67 9 -67 7 0
18 -7 25 -15 9 -11 8 -18 -9 -36 -25 -27 -28 -84 -6 -97 9 -5 17 -25 18 -47 4
-50 25 -59 24 -10 -1 26 5 39 21 51 31 22 31 85 0 108 l-23 16 30 25 c17 14
37 25 46 25 9 0 42 9 75 20 32 11 64 18 72 15 7 -2 11 -1 8 4 -3 4 12 13 33
20 47 14 54 14 46 1 -7 -11 9 -13 43 -4 12 4 22 13 22 20 0 8 5 14 10 14 6 0
10 -11 10 -25 0 -14 5 -25 11 -25 16 0 -14 -27 -37 -33 -16 -4 -16 -5 4 -6 12
0 22 -6 22 -12 0 -6 -7 -9 -15 -5 -8 3 -15 1 -15 -4 0 -6 5 -10 10 -10 6 0 10
-7 10 -15 0 -8 -5 -15 -11 -15 -6 0 -9 -6 -6 -14 3 -7 0 -19 -6 -25 -14 -14
-40 -15 -32 -1 8 14 3 13 -34 -6 -17 -8 -29 -19 -26 -23 2 -5 -13 -17 -35 -27
-22 -10 -40 -23 -40 -27 0 -5 -4 -5 -10 -2 -5 3 -10 1 -10 -5 0 -6 -4 -8 -10
-5 -5 3 -20 -4 -32 -16 l-23 -22 29 7 28 7 -28 -26 c-22 -21 -24 -25 -9 -20
11 4 36 8 55 10 36 2 57 9 134 45 53 24 60 25 52 5 -3 -8 2 -18 11 -23 11 -7
12 -11 4 -17 -9 -5 -7 -13 6 -28 17 -19 17 -20 1 -14 -10 4 -18 2 -18 -3 0 -6
5 -10 11 -10 6 0 1 -8 -11 -18 -28 -22 -19 -46 13 -36 18 5 20 4 10 -7 -10
-10 -18 -10 -38 -1 -15 7 -25 8 -25 2 0 -5 -11 -12 -25 -16 -14 -3 -25 -13
-25 -21 0 -8 -4 -11 -10 -8 -6 3 -7 -1 -4 -9 3 -9 1 -16 -4 -16 -6 0 -14 -9
-17 -20 -4 -11 -11 -18 -16 -15 -5 4 -9 1 -9 -5 0 -7 -7 -10 -15 -6 -9 3 -15
0 -15 -9 0 -8 -6 -15 -14 -15 -35 0 -23 -19 16 -27 41 -9 44 -8 66 24 23 34
46 45 36 18 -4 -8 -1 -15 5 -15 6 0 11 4 11 8 0 4 14 13 31 19 19 8 28 16 24
24 -5 8 -1 9 14 4 17 -5 21 -2 21 17 0 17 3 19 9 9 13 -20 63 -8 122 29 30 18
55 27 66 23 12 -5 15 -2 10 10 -7 19 1 21 21 8 10 -6 4 -18 -24 -47 -21 -21
-59 -65 -86 -96 l-49 -58 61 0 c62 0 69 5 49 42 -8 16 -8 24 4 35 12 13 18 9
41 -31 l27 -46 90 0 c76 0 90 2 86 15 -7 17 49 49 59 34 3 -6 12 -8 20 -5 7 3
22 -6 33 -19 14 -19 28 -25 56 -25 37 0 38 0 20 20 -23 26 -10 26 23 0 24 -20
38 -20 414 -20 368 1 388 2 388 19 0 10 7 25 17 32 15 13 15 12 4 -9 -11 -21
-10 -23 4 -20 9 1 16 7 15 11 0 4 6 15 15 23 8 9 13 20 10 25 -4 5 1 9 9 9 20
0 20 -9 -1 -32 -13 -14 -13 -18 -2 -18 10 -1 8 -5 -5 -15 -23 -17 -14 -20 14
-5 12 7 17 16 13 27 -4 10 -2 14 4 10 6 -4 17 0 24 9 16 19 21 47 8 38 -5 -3
-7 -10 -4 -15 4 -5 1 -9 -4 -9 -18 0 -12 42 7 46 11 4 17 14 16 35 0 16 -3 31
-6 34 -8 9 4 65 13 59 5 -3 6 -16 3 -30 -9 -35 1 -30 21 12 12 26 14 38 5 49
-9 11 -7 12 7 9 18 -5 57 40 53 60 -1 5 2 12 7 15 5 3 20 27 32 54 13 26 27
47 32 47 5 0 18 -9 29 -20 16 -16 18 -24 10 -40 -6 -11 -8 -25 -5 -30 3 -6 1
-10 -4 -10 -6 0 -11 -7 -11 -15 0 -8 5 -15 11 -15 5 0 -1 -10 -15 -22 -14 -13
-26 -34 -28 -47 -2 -14 -13 -35 -25 -47 -13 -13 -20 -29 -17 -41 4 -14 -12
-38 -56 -84 -94 -98 -94 -101 -16 -98 37 1 64 4 61 7 -2 3 3 11 13 19 9 8 11
11 3 7 -17 -9 -34 18 -18 28 7 4 17 8 22 8 14 0 17 -41 3 -57 -8 -11 52 -13
326 -13 l336 0 0 373 0 372 -37 25 c-21 14 -96 82 -168 151 -123 119 -199 179
-227 179 -7 0 -25 6 -40 14 -15 8 -42 17 -60 21 -18 4 -45 16 -60 26 -14 11
-29 19 -33 19 -7 0 -155 100 -155 105 0 8 238 -10 247 -19 3 -3 16 -6 28 -6
11 0 38 -9 60 -20 22 -11 47 -20 57 -20 9 0 20 -4 23 -10 3 -5 14 -10 23 -10
10 0 36 -9 57 -21 22 -11 60 -28 85 -38 25 -10 53 -22 63 -26 33 -14 17 20
-26 52 -23 18 -57 47 -75 64 -41 38 -178 119 -247 144 -27 10 -54 22 -60 26
-20 14 -156 59 -178 58 -12 0 -55 0 -95 1 l-74 2 5 46 c5 46 21 120 29 127 2
2 46 -9 98 -25 52 -16 102 -28 110 -27 8 1 51 -16 95 -37 59 -28 100 -58 155
-111 88 -86 228 -205 285 -242 22 -14 52 -34 67 -45 15 -10 32 -18 38 -18 7 0
10 132 10 409 0 407 0 409 -21 414 -24 7 -20 33 5 29 15 -3 16 104 16 1412 l0
1416 -917 0 c-619 -1 -912 -4 -901 -11 19 -11 73 -97 66 -104 -3 -3 -25 8 -49
24 -24 17 -55 32 -69 34 -14 3 -38 10 -54 16 -28 11 -96 23 -96 17 0 -2 30
-23 68 -47 37 -24 104 -79 150 -124 102 -99 97 -94 83 -68 -6 12 -16 23 -22
25 -6 2 -12 16 -12 31 0 18 -6 29 -20 33 -26 8 -48 29 -40 38 4 3 -4 6 -16 6
-12 0 -24 7 -27 15 -4 8 -10 12 -15 9 -5 -3 -9 0 -9 6 0 13 48 3 70 -15 8 -7
29 -18 46 -26 21 -8 30 -18 26 -28 -4 -10 -1 -12 8 -6 9 5 11 4 6 -3 -4 -6 -1
-22 7 -34 24 -38 63 -198 49 -198 -4 0 -34 27 -67 61 -33 34 -111 99 -174 146
-110 82 -163 112 -316 174 l-70 29 -827 0 -828 0 0 -1215z m1359 1173 c18 0
39 6 46 12 17 14 94 4 110 -15 5 -6 36 -20 68 -30 35 -12 57 -25 57 -34 0 -8
3 -11 7 -8 3 4 12 2 20 -4 7 -6 13 -8 13 -5 0 4 7 1 15 -8 8 -8 15 -21 15 -30
0 -10 9 -14 27 -13 16 1 35 -5 46 -16 10 -10 22 -15 27 -12 6 4 10 1 10 -4 0
-6 8 -11 18 -11 11 0 27 -9 37 -20 13 -15 21 -17 26 -9 5 9 12 8 24 -4 9 -10
21 -17 26 -17 6 0 7 -5 3 -11 -4 -7 2 -9 14 -7 12 2 27 -5 34 -15 7 -10 24
-19 37 -20 12 -1 36 -14 52 -30 16 -15 34 -25 39 -22 5 3 7 -1 4 -9 -6 -15 11
-17 32 -3 8 5 11 -4 8 -31 -4 -29 -2 -33 6 -20 10 16 12 16 30 0 11 -9 20 -23
20 -32 -1 -12 -3 -12 -14 3 -20 26 -27 21 -13 -11 19 -44 45 -75 56 -68 7 4 9
1 5 -8 -6 -16 7 -46 33 -72 17 -17 16 -17 -14 -11 -30 6 -32 5 -22 -16 5 -12
12 -30 15 -39 4 -10 11 -18 16 -18 5 0 6 -5 2 -11 -3 -6 -2 -14 3 -18 6 -3 14
-17 18 -29 6 -21 4 -23 -14 -17 -15 5 -21 2 -21 -9 0 -9 -4 -16 -10 -16 -5 0
-10 -9 -10 -20 0 -11 5 -20 10 -20 18 0 10 -18 -10 -23 -13 -3 -20 -14 -20
-31 0 -15 8 -30 20 -36 11 -6 20 -18 20 -27 0 -15 -1 -15 -18 0 -17 15 -18 15
-19 -3 -1 -11 2 -22 8 -25 12 -8 12 -45 -1 -45 -5 0 -8 -6 -7 -12 2 -7 -1 -3
-7 10 -9 20 -23 27 -52 23 -7 -1 -34 10 -62 24 -27 14 -63 25 -78 25 -23 0
-26 2 -14 10 12 8 12 10 -5 10 -11 0 -26 9 -33 21 -10 15 -16 18 -26 10 -10
-8 -25 -7 -56 4 -24 8 -52 13 -62 9 -10 -3 -18 -1 -18 5 0 16 -90 1 -127 -21
-18 -11 -33 -24 -33 -29 0 -5 -11 -11 -25 -15 -14 -3 -25 -12 -25 -20 0 -8 -7
-14 -15 -14 -8 0 -15 -4 -15 -8 0 -5 -8 -17 -17 -28 -10 -11 -26 -37 -36 -59
-10 -22 -25 -53 -33 -69 -8 -16 -12 -31 -8 -35 4 -3 9 0 12 8 2 7 15 23 28 34
13 11 24 27 24 34 0 18 19 17 26 -2 4 -8 11 -12 17 -8 6 4 8 0 4 -10 -3 -10
-3 -17 1 -18 52 -8 72 -5 72 10 0 20 27 61 41 61 5 0 9 -8 9 -17 0 -15 2 -16
10 -3 7 11 10 4 10 -26 0 -48 28 -90 72 -109 42 -17 73 -8 108 31 34 39 36 40
44 18 3 -8 2 -12 -4 -9 -6 3 -10 1 -10 -4 0 -6 6 -11 14 -11 13 0 26 -20 26
-42 0 -7 -22 -9 -65 -5 -36 4 -65 2 -65 -2 0 -12 56 -31 89 -31 l25 0 -22 -16
c-12 -8 -27 -12 -32 -9 -6 3 -10 1 -10 -4 0 -13 1 -13 58 -2 40 8 62 -3 25
-12 -10 -2 -5 -3 12 -1 16 3 33 10 37 17 4 6 8 9 9 5 5 -26 3 -34 -11 -41 -8
-4 4 -5 28 -3 36 4 42 2 38 -11 -6 -13 -4 -14 9 -3 9 7 12 16 7 19 -4 3 -3 16
3 28 9 18 14 20 25 10 10 -9 11 -9 6 1 -4 6 -2 12 4 12 8 0 10 -9 5 -27 -5
-16 -8 -36 -9 -45 0 -9 -2 -15 -5 -13 -6 6 -41 -25 -41 -36 0 -5 8 -5 18 -2
15 6 16 5 2 -12 -36 -46 -44 -54 -52 -49 -4 3 -8 0 -8 -6 0 -7 7 -10 15 -7 8
4 17 2 20 -3 4 -6 2 -10 -4 -10 -5 0 -13 -9 -16 -20 -4 -11 -11 -18 -16 -15
-5 4 -9 -1 -9 -9 0 -9 -7 -16 -16 -16 -12 0 -15 -6 -11 -21 3 -13 0 -22 -10
-26 -8 -3 -19 -16 -24 -29 -5 -14 -17 -24 -28 -24 -14 0 -19 -5 -15 -14 3 -9
-3 -20 -15 -28 -12 -7 -21 -16 -21 -20 0 -4 -5 -19 -12 -35 -6 -15 -12 -34
-14 -41 -3 -17 -4 -18 -31 -26 -19 -6 -22 -4 -17 11 5 14 4 15 -4 3 -6 -8 -9
-17 -6 -21 5 -9 -91 -109 -105 -109 -6 0 -11 -4 -11 -10 0 -5 -9 -10 -20 -10
-12 0 -20 -7 -20 -17 0 -15 -2 -16 -10 -3 -6 10 -10 11 -10 3 0 -7 -6 -13 -12
-13 -21 0 -98 -34 -98 -44 0 -4 7 -6 15 -2 8 3 15 1 15 -4 0 -13 -23 -13 -36
0 -6 6 -36 -1 -84 -19 -110 -43 -113 -44 -140 -48 -14 -2 -73 -13 -131 -24
-58 -11 -109 -19 -115 -17 -5 2 -11 -1 -14 -6 -3 -5 6 -10 20 -12 14 -2 42 -6
62 -9 48 -7 116 9 186 42 30 14 73 28 94 30 22 2 48 8 58 13 10 6 30 10 44 10
14 0 26 3 26 8 0 4 11 8 24 8 29 2 125 47 181 85 22 15 83 68 135 118 52 50
97 91 101 91 8 0 89 108 89 119 0 4 10 16 22 27 54 48 -71 -131 -160 -228
-159 -174 -212 -207 -417 -263 -274 -74 -299 -79 -410 -79 -91 -1 -122 3 -180
23 -72 25 -198 106 -248 160 -28 30 -39 54 -12 27 9 -8 22 -13 29 -10 9 3 13
-1 13 -13 -1 -11 5 -18 17 -18 11 0 21 -7 23 -15 4 -13 3 -13 -6 0 -6 8 -11
10 -11 4 0 -19 12 -24 34 -12 11 6 18 7 13 3 -8 -10 22 -47 33 -40 4 3 13 -2
20 -10 7 -8 19 -15 27 -15 7 0 24 -6 36 -14 28 -17 86 -32 72 -18 -20 20 -116
72 -110 60 4 -7 0 -5 -9 6 -8 10 -19 15 -24 12 -5 -3 -15 6 -22 20 -8 13 -18
23 -24 21 -13 -4 -56 33 -56 48 0 7 -11 24 -25 39 -13 14 -22 26 -19 26 7 0
-57 114 -69 121 -5 4 -7 11 -4 17 4 5 -3 18 -14 28 -11 10 -17 24 -15 31 3 7
1 15 -5 18 -28 18 -62 113 -66 185 -2 41 -8 79 -13 84 -6 6 -5 15 2 24 9 10 9
15 -2 22 -12 7 -12 15 0 49 8 26 11 59 6 97 -5 48 -4 55 9 50 8 -3 15 -2 15 3
0 5 -10 11 -22 15 -18 4 -20 8 -10 18 6 6 12 25 12 41 0 34 32 107 38 88 3 -8
-1 -17 -8 -21 -7 -4 -9 -13 -6 -19 4 -6 4 -16 0 -23 -4 -7 -9 -28 -11 -48 -2
-27 0 -31 7 -15 5 11 11 37 15 58 3 20 10 37 15 37 6 0 10 17 11 38 0 20 4 46
8 57 5 13 3 24 -7 31 -9 7 -12 16 -7 24 6 9 12 7 26 -11 17 -22 18 -22 17 -4
0 11 3 29 7 40 7 16 6 18 -6 8 -21 -20 -26 -16 -31 22 -3 24 1 36 10 40 8 3
12 8 9 11 -3 4 3 15 14 27 10 11 19 31 19 44 0 13 5 22 13 20 11 -2 13 8 16
72 1 19 4 21 15 12 18 -15 40 11 33 39 -5 21 12 27 29 10 12 -12 57 17 48 31
-3 6 -20 7 -37 4 -30 -5 -31 -5 -14 9 11 8 25 12 33 9 8 -3 14 -1 14 5 0 28
144 35 213 9 27 -9 73 -33 103 -52 30 -19 57 -35 60 -35 5 0 53 -50 72 -75 4
-5 20 -36 35 -67 16 -31 34 -59 40 -61 9 -3 9 -7 1 -18 -10 -13 -22 -60 -29
-114 -2 -11 -6 -40 -10 -65 -6 -42 -5 -44 9 -25 8 11 16 32 16 48 0 29 20 39
20 10 1 -13 4 -11 15 8 16 29 21 146 9 234 -8 65 -7 64 -124 154 -36 27 -75
60 -88 72 -12 12 -30 23 -40 24 -9 1 -31 9 -49 18 -18 9 -39 17 -48 17 -9 0
-13 5 -10 10 3 6 1 10 -4 10 -6 0 -11 -7 -11 -15 0 -8 -8 -15 -17 -15 -15 0
-16 2 -3 10 20 12 12 18 -36 26 -31 4 -45 2 -57 -11 -16 -15 -18 -15 -33 0 -9
9 -13 19 -9 23 4 4 10 1 12 -5 8 -22 25 -14 18 7 -5 16 -3 19 12 14 12 -4 14
-3 6 3 -14 10 1 83 17 83 6 0 10 7 10 15 0 8 6 15 14 15 8 0 21 17 29 38 9 20
16 32 16 25 1 -18 61 8 61 27 0 19 46 41 67 33 11 -4 14 -2 9 6 -9 14 33 52
51 46 7 -2 15 0 18 5 3 5 11 7 18 4 8 -3 21 10 30 28 11 21 16 25 14 12 -4
-17 0 -21 19 -21 13 0 31 8 40 18 13 14 14 19 4 19 -9 0 -7 5 5 14 17 12 21
12 31 -2 6 -9 25 -15 43 -14z m-99 -8 c0 -5 -5 -10 -11 -10 -5 0 -7 5 -4 10 3
6 8 10 11 10 2 0 4 -4 4 -10z m1652 -42 c32 -50 50 -117 28 -103 -6 3 -10 15
-10 25 0 10 -4 21 -9 24 -8 5 -51 90 -51 101 0 13 11 1 42 -47z m-852 6 c0 -2
-9 0 -20 6 -11 6 -20 13 -20 16 0 2 9 0 20 -6 11 -6 20 -13 20 -16z m950 -104
c0 -5 -4 -10 -10 -10 -5 0 -10 5 -10 10 0 6 5 10 10 10 6 0 10 -4 10 -10z
m-30 -63 c0 -5 -7 -4 -15 3 -8 7 -15 20 -15 29 1 13 3 13 15 -3 8 -11 15 -24
15 -29z m45 23 c3 -5 1 -10 -4 -10 -6 0 -11 5 -11 10 0 6 2 10 4 10 3 0 8 -4
11 -10z m-1000 -70 c3 -5 1 -10 -4 -10 -6 0 -11 5 -11 10 0 6 2 10 4 10 3 0 8
-4 11 -10z m982 -52 c-3 -8 -6 -5 -6 6 -1 11 2 17 5 13 3 -3 4 -12 1 -19z
m-2167 -12 c0 -3 -4 -8 -10 -11 -5 -3 -10 -1 -10 4 0 6 5 11 10 11 6 0 10 -2
10 -4z m2187 -18 c-3 -8 -6 -5 -6 6 -1 11 2 17 5 13 3 -3 4 -12 1 -19z m83
-53 c0 -8 -4 -15 -10 -15 -5 0 -10 7 -10 15 0 8 5 15 10 15 6 0 10 -7 10 -15z
m-2735 -21 c0 -24 -37 -31 -55 -10 -10 13 -9 17 11 25 32 13 44 8 44 -15z
m215 -60 c0 -41 -36 -153 -77 -241 -29 -62 -38 -73 -41 -54 -6 36 27 201 50
246 37 74 68 96 68 49z m1662 -6 c-7 -7 -12 -8 -12 -2 0 14 12 26 19 19 2 -3
-1 -11 -7 -17z m908 -3 c11 -13 10 -14 -4 -9 -9 3 -16 10 -16 15 0 13 6 11 20
-6z m-865 -53 c-8 -8 -25 10 -19 20 4 6 9 5 15 -3 4 -7 6 -15 4 -17z m-1595
-2 c0 -5 -2 -10 -4 -10 -3 0 -8 5 -11 10 -3 6 -1 10 4 10 6 0 11 -4 11 -10z
m3198 -42 c7 -7 11 -21 11 -32 -1 -18 -2 -19 -6 -3 -3 12 -10 16 -20 13 -22
-9 -36 3 -22 20 14 17 21 18 37 2z m-3484 -218 c8 -112 0 -154 -20 -99 l-12
34 -1 -34 c-1 -19 -3 -32 -6 -30 -11 11 -32 195 -24 205 5 6 6 14 2 17 -3 4
-1 7 5 7 7 0 12 6 12 14 0 23 24 25 31 2 3 -12 9 -64 13 -116z m152 84 c-4
-14 -15 -45 -25 -68 -25 -54 -51 -135 -51 -157 0 -10 -5 -19 -11 -21 -13 -4
-38 -159 -39 -238 0 -30 7 -104 16 -163 12 -83 13 -112 4 -121 -6 -6 -10 -6
-9 -1 2 6 -5 44 -14 85 -22 97 -29 235 -16 330 11 84 53 223 73 239 7 6 25 40
41 76 28 67 42 85 31 39z m1764 -48 c0 -2 -7 -7 -16 -10 -8 -3 -12 -2 -9 4 6
10 25 14 25 6z m-30 -106 c0 -5 -7 -10 -15 -10 -8 0 -15 5 -15 10 0 6 7 10 15
10 8 0 15 -4 15 -10z m-2126 -22 c-3 -13 -15 -35 -25 -50 -11 -14 -19 -29 -19
-32 0 -3 -20 -49 -45 -102 -25 -53 -45 -99 -45 -102 0 -4 -8 -16 -16 -27 -16
-19 -16 -19 -9 5 25 90 140 330 158 330 5 0 5 -10 1 -22z m1731 -58 c66 -22
195 -95 210 -119 3 -6 10 -9 15 -6 12 7 29 -53 28 -97 l-2 -37 -30 19 c-17 10
-29 21 -26 23 12 8 -130 132 -180 156 -47 22 -68 26 -147 26 -74 0 -90 2 -81
12 6 8 20 11 32 8 16 -5 18 -4 7 4 -12 8 -10 12 12 22 14 6 24 15 22 19 -6 11
60 -4 140 -30z m-1335 20 c0 -5 -4 -10 -10 -10 -5 0 -10 5 -10 10 0 6 5 10 10
10 6 0 10 -4 10 -10z m2596 -45 c14 -13 14 -16 0 -21 -9 -3 -13 -10 -10 -15 3
-5 0 -9 -5 -9 -14 0 -14 17 -1 25 8 5 7 11 -1 21 -15 19 -2 18 17 -1z m-1316
-57 c0 -10 -9 -9 -35 2 -17 8 -16 8 8 7 15 -1 27 -5 27 -9z m64 -20 c53 -29
50 -27 43 -34 -5 -5 -97 43 -97 52 0 8 13 4 54 -18z m4 -66 c2 -14 -2 -22 -12
-22 -19 0 -29 17 -22 36 8 22 30 12 34 -14z m526 -29 c10 -49 -2 -107 -25
-125 -11 -10 -17 -18 -13 -18 5 0 4 -4 -2 -8 -6 -4 -19 -23 -29 -42 -10 -19
-30 -51 -45 -70 -15 -19 -55 -73 -89 -119 -58 -80 -86 -101 -38 -30 12 19 29
48 37 64 8 17 18 32 21 35 3 3 28 55 56 115 85 186 105 225 113 225 5 0 11
-12 14 -27z m-620 9 c9 -14 -9 -31 -23 -23 -7 5 -10 14 -7 20 8 13 23 14 30 3z
m303 -78 c-3 -3 -12 -4 -19 -1 -8 3 -5 6 6 6 11 1 17 -2 13 -5z m174 -41 c-12
-20 -14 -14 -5 12 4 9 9 14 11 11 3 -2 0 -13 -6 -23z m-17 -38 c-4 -8 -11 -15
-16 -15 -6 0 -5 6 2 15 7 8 14 15 16 15 2 0 1 -7 -2 -15z m229 -28 c8 -18 17
-53 21 -78 6 -44 5 -47 -41 -100 -26 -30 -57 -63 -68 -74 -43 -42 -167 -145
-174 -145 -4 0 -21 -11 -37 -25 -16 -14 -32 -25 -35 -25 -4 0 -23 -7 -43 -15
-20 -8 -39 -15 -42 -14 -4 0 -10 -3 -13 -9 -3 -5 -21 -12 -39 -15 l-33 -7 40
48 c26 30 65 60 107 82 52 27 80 50 133 114 114 138 135 166 127 173 -4 4 -11
1 -16 -7 -5 -8 -11 -12 -14 -9 -3 3 19 32 49 64 30 32 55 62 55 66 0 18 10 8
23 -24z m-252 -24 c-12 -20 -14 -14 -5 12 4 9 9 14 11 11 3 -2 0 -13 -6 -23z
m-21 -48 c0 -19 -59 -129 -84 -158 -12 -12 -18 -18 -14 -12 4 7 5 15 1 18 -3
4 -2 7 4 7 16 0 55 70 40 71 -9 0 -9 2 1 6 6 2 12 13 12 23 0 9 7 23 15 30 9
7 14 19 11 27 -3 8 -1 11 4 8 6 -3 10 -12 10 -20z m111 -82 c-38 -51 -73 -89
-62 -67 5 11 17 27 26 34 10 8 21 24 26 37 5 13 13 23 19 23 6 0 2 -12 -9 -27z
m-90 -116 c-10 -9 -11 -8 -5 6 3 10 9 15 12 12 3 -3 0 -11 -7 -18z m-1752 -19
c4 -13 11 -36 14 -53 5 -26 4 -24 -13 10 -19 40 -24 65 -15 65 3 0 9 -10 14
-22z m3104 -110 c-2 -4 1 -8 6 -8 4 0 41 -31 80 -70 40 -38 76 -70 82 -70 5 0
9 -5 9 -11 0 -20 -117 72 -171 134 -79 90 -89 106 -44 68 22 -19 39 -39 38
-43z m-1468 42 c-3 -5 -11 -10 -16 -10 -6 0 -7 5 -4 10 3 6 11 10 16 10 6 0 7
-4 4 -10z m-1568 -112 c-3 -7 -5 -2 -5 12 0 14 2 19 5 13 2 -7 2 -19 0 -25z
m-71 -16 c-18 -16 -18 -16 -6 6 6 13 14 21 18 18 3 -4 -2 -14 -12 -24z m-46
-74 c-19 -33 -70 -171 -70 -190 0 -19 18 3 25 29 13 55 68 169 73 153 2 -6 -2
-18 -10 -27 -10 -13 -10 -17 0 -20 16 -6 15 -32 -3 -122 -9 -40 -14 -79 -12
-85 2 -6 7 9 12 34 9 55 41 151 68 204 18 38 20 39 33 21 8 -10 14 -26 13 -34
0 -11 -2 -12 -6 -3 -7 19 -23 4 -16 -16 10 -28 54 -66 62 -53 5 7 19 -1 41
-24 26 -27 31 -37 22 -48 -18 -21 -39 -86 -46 -143 -6 -41 -5 -51 7 -51 9 0
13 6 10 15 -4 8 1 19 11 24 9 5 14 13 11 18 -3 5 -1 11 5 15 5 3 10 2 10 -4 0
-5 10 -8 21 -6 21 4 21 4 4 -15 -10 -11 -15 -26 -12 -35 4 -8 2 -15 -3 -15 -6
0 -10 -4 -10 -10 0 -5 7 -10 15 -10 8 0 15 -9 15 -19 0 -11 12 -29 26 -40 15
-12 23 -25 18 -32 -4 -7 -2 -10 7 -7 8 3 14 17 15 32 1 15 6 32 13 39 8 8 11
0 11 -34 0 -24 4 -60 10 -78 5 -19 7 -37 4 -40 -6 -7 -44 36 -44 50 0 16 18 9
23 -8 4 -16 5 -16 6 -1 1 24 -18 33 -36 16 -12 -13 -11 -19 12 -46 15 -18 33
-32 40 -32 20 0 27 33 15 64 -14 37 -13 160 2 207 8 28 16 38 27 35 9 -3 28
-8 44 -12 23 -5 40 -34 20 -34 -5 0 -14 -12 -21 -27 -10 -23 -10 -30 3 -42 10
-10 15 -11 15 -3 0 7 7 12 16 12 8 0 12 5 9 10 -3 6 1 10 10 10 9 0 13 5 10
10 -4 6 5 10 19 10 14 0 26 -3 26 -7 0 -12 73 -13 87 -1 10 8 13 7 13 -5 0 -8
7 -17 15 -21 8 -3 15 -1 15 4 0 5 15 9 32 7 37 -3 61 -36 55 -74 -3 -14 0 -20
6 -16 6 4 8 0 5 -9 -4 -8 2 -28 13 -44 11 -17 19 -48 20 -74 l1 -45 12 40 c23
73 1 265 -32 285 -9 5 -15 10 -12 11 48 10 58 9 53 -9 -5 -21 79 -201 85 -182
2 6 -3 22 -12 35 -24 37 -18 44 9 10 24 -28 25 -29 25 -7 0 12 5 22 10 22 6 0
10 7 10 16 0 8 -3 13 -7 11 -5 -3 -14 1 -21 9 -7 8 -8 14 -3 14 6 0 13 11 17
24 6 26 29 40 47 29 6 -4 8 0 4 10 -5 12 -1 17 13 17 21 0 60 19 71 34 4 5 14
6 22 3 8 -3 19 -1 25 5 24 24 72 -102 72 -189 0 -23 5 -45 10 -48 7 -4 9 7 6
32 -3 21 -8 63 -11 93 -3 31 -17 75 -31 99 -24 43 -24 44 -2 29 37 -25 61 -64
89 -151 16 -45 28 -73 28 -62 1 26 -22 109 -43 158 l-17 38 26 -17 c22 -14 25
-14 19 -1 -4 12 -1 14 15 10 16 -4 20 -2 16 9 -4 10 1 17 14 21 12 3 21 1 21
-4 0 -5 -5 -9 -12 -9 -9 0 -9 -3 0 -12 10 -10 15 -10 22 2 8 12 10 12 16 -3 4
-10 13 -16 21 -13 9 4 11 2 7 -6 -5 -8 0 -9 15 -5 17 4 21 2 17 -10 -3 -8 3
-27 15 -41 l21 -27 -7 35 c-10 51 -52 140 -85 181 l-29 36 29 22 c16 11 33 21
38 21 5 0 26 -27 48 -60 21 -33 42 -60 47 -60 11 0 8 15 -5 28 -10 10 -10 15
1 22 20 12 60 -16 67 -47 5 -18 9 -21 15 -12 13 21 27 0 32 -46 l4 -40 1 46
c2 53 -18 118 -54 172 -13 20 -21 37 -16 37 16 0 75 -69 108 -127 26 -44 33
-51 28 -28 -4 17 -11 38 -15 47 -6 10 -5 19 1 23 5 3 10 -3 10 -15 0 -13 4
-19 12 -14 6 4 8 3 4 -4 -6 -11 11 -28 20 -19 9 9 -19 92 -38 110 -10 10 -18
23 -18 29 0 6 -8 18 -17 27 -24 21 -31 50 -9 31 9 -7 16 -8 16 -2 0 23 37 -2
56 -37 80 -158 78 -153 77 -225 -2 -69 15 -126 38 -126 6 0 37 -19 68 -42 31
-24 68 -50 81 -59 l24 -16 -60 -35 c-33 -19 -66 -35 -74 -35 -9 0 -28 -3 -43
-7 -15 -3 -27 -2 -27 3 0 4 -2 24 -6 42 l-5 34 16 -28 c20 -34 30 -29 20 10
-11 37 -12 43 -13 76 -2 20 -7 27 -22 27 -11 0 -20 7 -20 15 0 8 5 15 11 15 6
0 9 6 7 13 -3 6 -14 12 -26 12 -12 0 -28 9 -37 20 -15 20 -16 19 -13 -5 1 -14
-7 -43 -20 -63 -37 -64 -24 -95 29 -67 27 15 42 -3 56 -65 6 -27 11 -50 10
-50 -1 -1 -22 -17 -47 -36 -77 -60 -179 -128 -233 -156 -29 -14 -55 -31 -59
-38 -4 -7 -19 -16 -33 -19 -14 -4 -36 -23 -50 -46 -14 -22 -30 -40 -35 -40 -6
0 -10 -7 -10 -16 0 -9 5 -12 11 -8 22 13 -1 -49 -34 -89 -25 -32 -31 -49 -31
-88 l0 -48 -95 -49 c-100 -52 -159 -72 -145 -51 5 8 2 9 -11 1 -14 -7 -23 -5
-39 9 l-20 19 26 25 c15 14 31 25 36 25 5 0 12 10 15 22 4 12 9 19 13 15 7 -7
54 41 54 56 0 4 8 7 17 7 12 0 14 3 7 10 -21 21 -64 -13 -239 -187 -64 -63
-91 -83 -120 -89 l-37 -7 17 34 c10 19 36 53 58 77 48 49 38 56 -14 9 -44 -40
-79 -89 -79 -112 0 -16 -10 -17 -106 -12 -65 4 -114 3 -125 -4 -23 -12 -24 -6
-3 15 8 9 26 16 39 16 15 0 26 7 30 21 11 35 -2 63 -40 84 -33 17 -39 18 -63
4 -18 -9 -28 -25 -30 -44 -4 -34 -54 -110 -83 -125 -18 -10 -19 -8 -17 46 l3
58 -40 12 c-54 15 -137 58 -205 104 -48 33 -191 167 -240 225 -70 83 -93 137
-66 158 8 6 7 10 -1 14 -21 8 -17 110 5 133 14 15 17 33 15 78 -2 51 0 59 15
58 13 -1 16 6 14 25 -2 17 3 29 12 32 9 4 13 13 10 22 -4 9 -1 15 7 15 9 1 5
8 -10 20 -14 12 -18 20 -10 20 15 0 17 61 5 127 -3 17 -2 35 4 38 6 4 10 -6
11 -22 0 -15 9 -50 19 -78 l18 -50 -2 100 c-1 91 1 105 28 159 27 55 94 141
103 133 2 -3 -5 -20 -17 -39z m196 -27 c-10 -16 -23 -13 -30 5 -6 15 -4 15 11
3 15 -13 16 -12 9 6 -5 15 -4 17 5 8 6 -6 8 -16 5 -22z m-31 -51 c3 -5 1 -10
-4 -10 -6 0 -11 5 -11 10 0 6 2 10 4 10 3 0 8 -4 11 -10z m1256 -157 c13 -16
12 -17 -3 -4 -17 13 -22 21 -14 21 2 0 10 -8 17 -17z m679 -58 c0 -8 -4 -15
-9 -15 -13 0 -22 16 -14 24 11 11 23 6 23 -9z m-1749 -108 c-10 -9 -11 -8 -5
6 3 10 9 15 12 12 3 -3 0 -11 -7 -18z m1368 -38 c-16 -10 -23 -4 -14 10 3 6
11 8 17 5 6 -4 5 -9 -3 -15z m71 11 c0 -5 -5 -10 -11 -10 -5 0 -7 5 -4 10 3 6
8 10 11 10 2 0 4 -4 4 -10z m-2033 -122 c-3 -7 -5 -2 -5 12 0 14 2 19 5 13 2
-7 2 -19 0 -25z m2983 10 c6 -13 26 -50 45 -83 20 -33 47 -85 62 -115 15 -30
31 -56 35 -58 4 -2 8 -9 8 -15 0 -7 12 -23 25 -36 14 -13 25 -33 25 -45 -1
-21 -1 -21 -13 -1 -14 23 -47 32 -47 12 0 -7 5 -18 12 -25 9 -9 9 -12 -3 -12
-17 0 -59 68 -59 94 0 9 -4 16 -8 16 -4 0 -16 14 -25 30 -10 17 -13 30 -8 30
20 0 11 27 -23 77 -20 29 -36 66 -38 90 -3 22 -8 45 -12 52 -4 6 -2 11 4 11 6
0 15 -10 20 -22z m-2971 -71 c0 -21 -1 -21 -9 -2 -12 28 -12 37 0 30 6 -3 10
-16 9 -28z m2676 -107 c110 -66 122 -75 146 -122 27 -52 25 -58 -16 -47 -20 6
-44 8 -54 4 -15 -5 -18 1 -17 37 1 42 1 42 -46 56 -30 8 -52 22 -60 35 -6 12
-29 40 -50 62 -42 45 -50 65 -15 43 12 -9 63 -39 112 -68z m-285 46 c94 -10
101 -17 75 -79 -16 -40 -30 -53 -40 -37 -4 6 -10 8 -14 6 -4 -3 -6 9 -5 25 2
26 -1 29 -24 27 -20 -2 -26 1 -24 12 3 12 1 12 -9 3 -6 -6 -18 -9 -25 -6 -8 3
-14 0 -14 -6 0 -7 -8 -8 -23 -2 -13 5 -30 5 -37 1 -8 -5 -19 -6 -25 -2 -5 3
-34 8 -64 10 -30 2 -60 10 -68 18 -17 16 -29 18 -38 4 -3 -5 -17 -10 -31 -10
-17 0 -23 -4 -18 -12 6 -10 4 -10 -7 0 -17 16 -2 32 43 46 31 10 251 11 348 2z
m459 -23 c11 -10 29 -37 41 -60 12 -24 27 -43 33 -43 12 0 77 -68 77 -81 0 -5
7 -9 15 -9 21 0 47 -61 33 -77 -8 -10 -6 -13 6 -13 9 0 16 -8 16 -19 0 -10 25
-51 56 -91 56 -71 71 -110 19 -48 -16 18 -33 33 -39 33 -20 1 -36 16 -36 33 0
10 -9 23 -21 30 -12 8 -18 19 -15 28 3 8 2 13 -2 10 -4 -2 -14 0 -22 5 -11 6
-12 11 -3 17 8 5 8 12 -3 26 -7 11 -17 17 -20 13 -13 -12 -93 107 -135 198
-12 28 -24 53 -26 58 -7 13 7 7 26 -10z m-609 -93 c0 -5 -7 -10 -15 -10 -8 0
-15 5 -15 10 0 6 7 10 15 10 8 0 15 -4 15 -10z m317 -27 c-9 -9 -19 -14 -23
-11 -10 10 6 28 24 28 15 0 15 -1 -1 -17z m-472 -33 c-3 -5 -12 -10 -18 -10
-7 0 -6 4 3 10 19 12 23 12 15 0z m-193 -9 c6 10 7 6 2 -11 -4 -14 -10 -26
-14 -28 -3 -1 -4 -16 -2 -33 4 -29 3 -31 -19 -24 -13 4 -31 14 -39 22 -13 14
-13 15 4 9 13 -4 17 -2 13 8 -3 8 4 27 16 42 13 17 22 23 25 14 4 -10 6 -9 14
1z m798 -1 c0 -5 -8 -10 -17 -10 -15 0 -16 2 -3 10 19 12 20 12 20 0z m370
-16 c0 -8 4 -14 9 -14 5 0 11 -9 14 -20 8 -31 -10 -24 -25 10 -7 17 -16 30
-20 30 -5 0 -8 4 -8 10 0 5 7 7 15 4 8 -4 15 -12 15 -20z m-1020 -39 c0 -3 -9
-5 -20 -5 -11 0 -20 7 -20 15 0 13 4 14 20 5 11 -6 20 -13 20 -15z m-390 -24
c0 -12 -20 -25 -27 -18 -7 7 6 27 18 27 5 0 9 -4 9 -9z m590 -51 c-12 -63 -42
-100 -81 -100 -44 0 -62 10 -48 26 6 8 19 14 28 14 9 0 28 23 45 55 25 45 49
68 64 60 1 -1 -2 -26 -8 -55z m526 39 c3 -6 1 -16 -4 -21 -13 -13 -45 8 -36
23 7 12 31 11 40 -2z m95 -5 c10 -13 10 -17 -2 -25 -27 -17 -44 -4 -33 25 8
20 18 20 35 0z m-1120 -47 c-8 -8 -11 -3 -11 19 1 25 2 27 11 11 8 -14 8 -22
0 -30z m229 12 c0 -5 -4 -9 -10 -9 -5 0 -10 7 -10 16 0 8 5 12 10 9 6 -3 10
-10 10 -16z m640 9 c0 -5 -4 -8 -9 -8 -6 0 -22 -11 -37 -25 -15 -14 -31 -25
-37 -25 -5 0 -25 -15 -43 -34 -23 -24 -39 -33 -54 -29 -11 3 -17 9 -14 15 3 5
0 16 -7 25 -12 13 -9 20 21 44 34 29 89 45 147 44 18 0 33 -3 33 -7z m203 -32
c4 -11 1 -13 -10 -9 -12 5 -15 2 -10 -10 7 -17 -2 -26 -55 -56 l-38 -20 -25
23 c-14 13 -25 26 -25 29 0 10 56 36 97 46 55 13 60 13 66 -3z m-1193 -5 c0
-5 -7 -25 -15 -45 -9 -20 -13 -41 -10 -46 4 -6 0 -10 -8 -10 -25 0 -28 41 -6
77 20 31 39 43 39 24z m1345 -47 c5 -6 28 -33 50 -60 22 -26 73 -85 113 -131
41 -46 69 -83 63 -83 -6 0 -11 5 -11 12 0 6 -3 9 -6 5 -3 -3 -28 8 -55 24 -28
16 -54 29 -58 29 -5 0 -14 7 -21 15 -7 8 -22 15 -34 15 -32 0 -53 17 -39 31 6
6 9 18 6 27 -5 10 -2 13 6 8 7 -5 10 -14 7 -22 -3 -8 -1 -14 4 -14 6 0 10 9
10 20 0 16 -13 23 -60 37 -34 10 -60 24 -60 31 0 7 10 36 21 63 22 49 22 50
37 27 9 -13 21 -28 27 -34z m-1175 -49 c24 -9 29 -14 15 -15 -18 -1 -19 -1 -2
-11 27 -16 20 -32 -13 -27 -24 4 -27 2 -18 -9 16 -20 5 -25 -25 -10 -14 6 -28
21 -31 32 -6 22 -16 16 -20 -11 -3 -21 -16 -27 -33 -16 -15 10 -5 52 12 52 7
0 26 7 41 15 34 17 29 17 74 0z m576 -71 c-3 -9 -6 -18 -6 -20 0 -2 -11 -4
-25 -4 -15 0 -25 6 -25 14 0 13 12 18 54 25 4 0 5 -6 2 -15z m-816 -21 c0 -3
-16 -35 -36 -70 -26 -48 -35 -74 -32 -98 3 -28 -1 -36 -25 -50 -16 -10 -41
-21 -55 -25 l-27 -8 25 -10 c18 -7 29 -6 39 2 8 6 22 10 31 8 10 -2 20 4 23
13 5 11 21 15 64 15 l58 -1 -24 -19 c-13 -11 -29 -20 -37 -20 -8 0 -14 -3 -14
-8 0 -10 -85 -48 -135 -60 -22 -6 -67 -13 -100 -17 -32 -4 -66 -8 -75 -10 -66
-13 -215 -26 -242 -22 -36 5 -129 -8 -166 -23 -34 -15 -25 -75 19 -131 19 -24
34 -46 34 -49 0 -3 11 -20 25 -38 17 -24 26 -29 33 -20 6 9 7 8 3 -4 -3 -11 4
-28 19 -44 29 -31 31 -22 9 32 -21 50 -30 109 -15 100 6 -4 11 -2 11 4 0 6 5
8 12 4 7 -5 8 -3 4 5 -5 7 -13 10 -20 8 -6 -3 -12 6 -12 19 -1 14 2 21 8 18 6
-4 56 -8 112 -10 55 -1 108 -3 116 -3 14 -1 26 -26 81 -163 26 -66 46 -80 24
-17 -10 28 -12 46 -5 58 9 15 9 14 10 -1 0 -10 4 -18 9 -18 9 0 8 77 0 125 -5
27 36 33 62 9 25 -22 38 -10 15 15 -14 15 -15 21 -4 27 28 18 46 13 58 -15 14
-35 77 -94 90 -86 6 3 7 -1 4 -9 -9 -22 -25 -20 -68 9 -32 22 -66 33 -66 21 0
-2 7 -19 15 -39 8 -19 18 -60 23 -91 8 -51 7 -56 -10 -56 -10 0 -18 -7 -18
-15 0 -8 -17 -19 -42 -25 -62 -16 -91 -25 -202 -60 -89 -28 -100 -30 -115 -16
-28 25 -60 20 -79 -14 -18 -31 -42 -40 -42 -15 0 8 -11 34 -24 57 -13 24 -52
108 -86 188 -34 80 -69 159 -78 175 -8 17 -16 44 -18 60 -1 17 -7 47 -12 68
-12 46 1 102 31 135 18 20 29 23 62 19 75 -11 236 11 355 48 63 19 125 35 138
35 12 0 22 4 22 9 0 5 12 12 28 15 37 9 175 66 187 77 11 11 25 12 25 2z m135
-39 c0 -19 5 -28 14 -26 7 1 24 -4 37 -13 19 -12 22 -19 15 -38 -5 -12 -15
-21 -21 -19 -7 2 -23 -6 -35 -18 -18 -17 -27 -19 -48 -11 -15 6 -34 8 -43 4
-10 -4 -22 1 -30 12 -11 15 -10 22 6 43 11 13 20 31 20 38 0 8 5 14 10 14 6 0
10 5 10 10 0 19 25 39 45 36 14 -2 19 -11 20 -32z m625 -10 c0 -17 -37 -37
-53 -28 -6 4 -9 3 -4 -1 10 -12 -22 -45 -44 -45 -10 0 -21 -5 -24 -11 -9 -13
-135 -5 -164 10 -29 16 -26 31 7 31 15 0 33 5 39 11 6 6 29 13 50 15 41 3 112
19 119 27 12 12 74 4 74 -9z m248 -56 c-6 -18 -28 -21 -28 -4 0 9 7 16 16 16
9 0 14 -5 12 -12z m65 -37 c3 -14 -1 -21 -16 -25 -11 -3 -24 -3 -29 0 -15 9
-8 42 10 47 23 5 29 1 35 -22z m-233 -36 c0 -5 3 -21 7 -34 5 -19 3 -23 -9
-18 -9 3 -21 0 -27 -6 -6 -6 -11 -7 -11 -1 0 5 -12 10 -26 10 -32 2 -32 3 -36
39 -2 25 1 31 21 33 13 2 28 -2 32 -10 7 -10 9 -9 9 5 0 15 3 15 20 5 11 -7
20 -17 20 -23z m-510 -53 c0 -29 -73 -45 -83 -18 -3 8 -3 17 0 20 9 9 83 7 83
-2z m920 -42 c0 -13 -7 -20 -20 -20 -13 0 -20 7 -20 20 0 13 7 20 20 20 13 0
20 -7 20 -20z m-112 -3 c8 -9 4 -16 -16 -24 -38 -17 -166 -42 -172 -34 -3 3
-21 7 -39 9 -43 3 -47 7 -31 27 8 9 30 15 59 16 25 0 69 4 96 9 76 11 92 11
103 -3z m-2044 -66 c-2 -2 1 -10 7 -18 17 -20 -5 -40 -46 -41 -25 -1 -35 3
-35 13 0 20 -16 19 -24 -1 -3 -8 -11 -12 -17 -9 -7 5 -1 17 15 34 20 21 35 27
65 27 22 -1 37 -3 35 -5z m1006 -41 c0 -10 7 -23 16 -28 10 -6 17 -26 19 -53
6 -80 27 -121 74 -146 53 -28 106 -39 115 -24 4 6 12 11 17 11 6 0 8 -4 5 -9
-8 -13 69 -22 97 -12 13 5 31 17 40 26 16 15 18 15 27 -10 5 -14 10 -40 10
-56 0 -17 6 -32 15 -36 14 -5 14 -8 2 -22 -28 -33 -67 -126 -67 -161 0 -19 4
-51 10 -69 6 -23 6 -39 -1 -47 -7 -8 -6 -14 2 -20 9 -5 7 -11 -6 -21 -11 -7
-14 -13 -9 -13 6 0 15 5 22 12 6 6 15 9 19 5 11 -12 -31 -37 -52 -30 -27 8
-25 4 -35 69 -10 64 -32 139 -51 176 -19 38 -81 102 -109 114 -14 6 -31 18
-39 27 -7 10 -17 17 -22 17 -9 0 -132 53 -161 70 -10 6 -24 10 -32 10 -9 0
-12 7 -9 20 4 13 0 20 -9 20 -14 0 -108 91 -108 105 0 3 9 1 19 -5 29 -15 38
-12 15 5 -19 14 -18 14 4 15 12 0 22 6 22 15 0 8 14 17 35 21 19 3 35 10 35
14 0 10 46 28 73 29 10 1 17 -6 17 -19z m480 0 c0 20 2 22 10 10 5 -8 7 -25 3
-37 -3 -14 2 -34 13 -51 10 -15 17 -30 16 -34 -1 -5 3 -8 8 -8 6 0 10 -5 10
-11 0 -7 -7 -8 -17 -4 -10 4 -32 9 -50 12 -47 7 -92 21 -70 22 17 1 17 2 3 17
-9 8 -14 19 -11 24 3 4 -5 11 -18 15 -23 7 -20 9 24 19 16 3 29 15 32 28 l6
21 20 -24 20 -24 1 25z m251 -21 c-5 -13 -10 -19 -10 -12 -1 15 10 45 15 40 3
-2 0 -15 -5 -28z m199 16 c0 -30 -24 -65 -44 -65 -21 0 -67 -22 -133 -62 l-33
-20 0 51 0 51 31 -19 c30 -19 36 -18 102 5 9 4 17 10 17 15 0 5 7 6 15 3 11
-5 17 3 21 25 7 31 24 43 24 16z m-631 -40 c23 -25 39 -50 36 -54 -3 -5 8 -19
25 -31 36 -26 38 -40 7 -40 -15 0 -38 16 -63 43 -21 24 -52 52 -69 64 -29 21
-30 21 -11 42 11 12 22 21 26 21 4 0 26 -20 49 -45z m301 6 c0 -21 3 -54 6
-72 l7 -34 -36 34 c-20 19 -37 43 -39 55 -5 30 13 56 39 56 20 0 23 -5 23 -39z
m373 24 c-3 -9 -8 -14 -10 -11 -3 3 -2 9 2 15 9 16 15 13 8 -4z m-2153 -11 c0
-8 -4 -12 -10 -9 -5 3 -10 10 -10 16 0 5 5 9 10 9 6 0 10 -7 10 -16z m2930
-30 c0 -2 -7 -4 -15 -4 -8 0 -15 4 -15 10 0 5 7 7 15 4 8 -4 15 -8 15 -10z
m-1580 -68 c0 -5 -9 -1 -20 9 -11 10 -20 25 -20 34 0 12 6 9 20 -9 11 -14 20
-29 20 -34z m1624 39 c11 -8 18 -17 15 -19 -2 -3 -15 4 -29 14 -14 11 -20 20
-15 19 6 0 19 -6 29 -14z m-2744 -16 c0 -5 -4 -9 -10 -9 -5 0 -10 7 -10 16 0
8 5 12 10 9 6 -3 10 -10 10 -16z m-368 -31 c-6 -6 -16 -7 -23 -3 -9 6 -7 12 7
22 21 15 34 -1 16 -19z m325 12 c3 -11 10 -20 15 -20 5 0 7 -4 4 -8 -7 -11 31
-58 40 -49 4 4 -1 14 -12 22 -10 8 -14 15 -7 15 7 0 10 7 6 18 -15 43 14 -6
53 -89 37 -76 40 -89 24 -84 -12 4 -26 -1 -39 -14 -19 -19 -61 -28 -116 -23
-11 1 -39 2 -62 2 -24 1 -43 5 -43 10 0 5 7 7 15 4 8 -4 15 -2 15 4 0 6 -5 12
-10 14 -6 2 -8 16 -4 35 4 18 10 30 15 27 5 -3 9 5 9 18 -1 22 -1 22 -12 3
-11 -19 -11 -19 -19 0 -14 37 -11 47 11 35 16 -8 20 -8 20 3 0 8 -9 17 -19 20
-14 3 -18 11 -14 26 7 28 20 27 26 -1 3 -17 5 -15 6 9 1 33 11 40 64 42 21 1
30 -5 34 -19z m2093 -11 c44 -14 112 -53 145 -83 25 -23 34 -43 15 -31 -18 11
-10 -22 10 -40 11 -10 20 -23 20 -29 0 -7 10 -20 21 -30 16 -13 24 -15 29 -6
5 8 10 8 14 2 3 -5 -1 -12 -9 -16 -8 -3 -15 -11 -14 -18 0 -10 2 -10 6 0 7 17
23 15 23 -4 0 -10 5 -14 16 -10 10 4 13 2 8 -6 -17 -27 -9 -83 14 -108 15 -16
22 -32 19 -47 -5 -25 7 -40 18 -23 10 17 25 11 25 -10 0 -11 5 -20 11 -20 6 0
7 -5 2 -12 -8 -14 -11 -25 -20 -80 -3 -23 -11 -38 -19 -38 -9 0 -14 -12 -14
-32 0 -22 -3 -28 -9 -20 -6 10 -11 5 -21 -17 -7 -17 -19 -31 -26 -31 -8 0 -14
-5 -14 -11 0 -16 -23 -36 -37 -32 -6 2 -14 -1 -18 -6 -3 -6 -1 -11 6 -11 12 0
3 -15 -9 -15 -13 0 -32 -16 -32 -27 0 -7 6 -6 15 2 18 15 19 7 4 -21 -5 -11
-14 -17 -19 -14 -4 3 -11 -8 -15 -25 -4 -16 -11 -30 -17 -30 -6 0 -8 -7 -4
-15 3 -8 2 -14 -2 -14 -24 4 -42 -3 -42 -17 0 -8 -5 -12 -11 -8 -8 4 -9 -1 -4
-17 7 -20 6 -22 -7 -12 -12 10 -19 9 -36 -8 -12 -11 -27 -17 -32 -14 -6 4 -9
2 -8 -3 3 -11 0 -12 -37 -12 -15 0 -25 6 -25 14 0 7 -7 19 -15 26 -8 7 -15 21
-15 31 0 11 7 19 15 19 8 0 15 5 15 11 0 6 11 20 25 31 14 11 25 26 25 34 0 8
3 13 8 12 15 -4 50 13 56 27 7 19 1 19 -19 -1 -9 -9 -19 -14 -22 -10 -9 8 28
47 41 43 15 -5 45 24 40 38 -3 6 3 18 12 26 15 12 17 12 9 0 -5 -10 -4 -12 3
-7 7 4 12 18 12 32 0 13 3 23 8 23 23 -4 32 5 42 42 6 23 9 44 6 47 -4 3 -20
-7 -36 -23 -17 -16 -30 -24 -30 -19 0 5 9 15 20 22 11 7 20 17 20 22 0 6 -12
-1 -27 -15 -15 -14 -34 -25 -41 -25 -7 0 -10 -5 -7 -11 4 -6 1 -9 -7 -7 -8 2
-39 -24 -69 -56 -91 -100 -169 -176 -179 -176 -6 0 -10 7 -10 15 0 7 -7 18
-15 22 -11 6 -13 19 -8 46 4 29 9 35 18 27 10 -8 15 -8 21 1 4 8 3 9 -4 5 -8
-5 -12 1 -12 15 0 18 -2 19 -15 9 -11 -9 -15 -10 -15 -1 0 8 -6 6 -16 -4 -9
-9 -18 -14 -21 -11 -7 7 132 182 142 178 4 -2 11 2 16 9 6 10 13 10 33 1 18
-8 26 -8 28 0 3 7 10 8 17 4 11 -7 11 -10 0 -17 -9 -6 -10 -9 -2 -9 22 0 43
12 43 25 0 7 14 16 31 20 28 6 31 10 27 37 -3 18 3 47 15 72 29 61 19 176 -20
207 -15 13 -15 11 -9 -24 14 -77 16 -109 6 -128 -12 -21 -40 -26 -40 -6 0 6
-5 4 -11 -6 -6 -10 -9 -27 -6 -38 3 -10 1 -21 -3 -24 -5 -3 -10 2 -12 12 -2
13 -9 10 -35 -16 -18 -18 -43 -34 -55 -35 -13 -2 -30 -6 -38 -9 -85 -30 -111
-34 -125 -20 -17 17 -39 8 -31 -13 3 -9 -1 -14 -12 -14 -10 0 -24 -6 -32 -12
-8 -7 -7 -3 3 8 16 19 16 22 2 27 -9 4 -15 1 -15 -7 0 -7 -10 -26 -21 -40 -17
-21 -24 -25 -30 -14 -7 11 -10 10 -21 -1 -10 -10 -10 -12 0 -7 6 4 12 2 12 -3
0 -13 -3 -13 -24 -5 -20 8 -21 48 -1 64 8 7 13 16 10 20 -5 8 57 68 105 100
19 13 37 27 40 30 3 3 21 12 40 20 19 8 40 19 46 25 12 11 59 45 77 57 6 4 8
10 4 14 -4 4 -13 2 -19 -4 -7 -7 -21 -12 -33 -12 -12 0 -26 -5 -33 -12 -9 -9
-12 -9 -12 0 0 7 6 12 13 12 7 1 4 6 -6 15 -13 9 -17 20 -12 34 4 12 2 21 -4
21 -6 0 -11 -7 -11 -16 0 -8 -5 -12 -10 -9 -8 5 -7 11 1 21 6 8 8 14 3 15 -5
0 2 5 16 11 15 6 20 12 13 15 -7 3 -13 11 -13 19 0 26 -29 14 -77 -31 -26 -25
-48 -45 -49 -45 -5 0 -1 68 5 79 5 7 5 26 1 41 -6 21 -2 34 19 62 14 19 32 33
40 30 8 -3 11 0 7 6 -10 17 41 27 69 14 18 -8 26 -8 35 3 13 15 110 12 170 -6z
m760 11 c24 -15 7 -19 -20 -5 -15 8 -19 14 -10 14 8 1 22 -3 30 -9z m-1240
-76 c0 -8 -4 -12 -10 -9 -5 3 -10 10 -10 16 0 5 5 9 10 9 6 0 10 -7 10 -16z
m-2030 -14 c0 -5 -2 -10 -4 -10 -3 0 -8 5 -11 10 -3 6 -1 10 4 10 6 0 11 -4
11 -10z m1645 -10 c15 -6 11 -7 -17 -7 -23 1 -33 4 -25 9 14 9 16 9 42 -2z
m432 -32 c-3 -7 -5 -2 -5 12 0 14 2 19 5 13 2 -7 2 -19 0 -25z m883 22 c0 -5
-5 -10 -11 -10 -5 0 -7 5 -4 10 3 6 8 10 11 10 2 0 4 -4 4 -10z m-1557 -60
c21 -4 50 -19 65 -32 72 -66 88 -77 136 -92 11 -4 16 -12 12 -22 -3 -8 -2 -12
4 -9 11 7 37 -52 45 -103 4 -28 3 -32 -4 -17 -11 22 -65 85 -74 85 -3 0 -3
-19 0 -42 4 -38 3 -41 -9 -26 -8 9 -26 20 -41 23 -14 4 -31 13 -38 21 -6 8
-17 14 -23 14 -10 0 -71 58 -174 168 -43 45 -78 57 -67 23 3 -11 1 -22 -5 -26
-5 -3 -10 -3 -11 2 0 4 -2 27 -5 50 l-5 42 78 -25 c43 -14 95 -29 116 -34z
m-1113 20 c0 -11 -4 -20 -10 -20 -5 0 -10 2 -10 4 0 2 -3 11 -6 20 -4 11 -1
16 10 16 9 0 16 -8 16 -20z m1751 8 c0 -7 2 -57 5 -111 l5 -97 -58 39 c-31 22
-59 39 -61 37 -2 -2 18 -25 43 -51 47 -47 91 -127 80 -145 -3 -6 0 -10 7 -10
8 -1 6 -7 -7 -18 -11 -9 -20 -23 -21 -29 -2 -31 -5 -33 -28 -18 -16 11 -26 13
-31 5 -12 -19 -25 0 -15 24 5 13 6 27 3 30 -4 3 2 15 12 26 11 12 13 20 6 20
-6 0 -17 -11 -23 -25 -15 -34 -32 -31 -65 10 -31 38 -50 47 -33 15 6 -11 8
-25 5 -30 -3 -5 6 -22 20 -36 37 -36 22 -44 -16 -8 -38 36 -49 63 -50 124 -1
38 5 57 27 91 16 23 37 47 47 53 10 6 44 35 75 63 59 55 72 62 73 41z m703
-56 c3 -5 -1 -9 -9 -9 -8 0 -12 4 -9 9 3 4 7 8 9 8 2 0 6 -4 9 -8z m-454 -81
c0 -12 -20 -25 -27 -18 -7 7 6 27 18 27 5 0 9 -4 9 -9z m-1050 -21 c0 -5 -2
-10 -4 -10 -3 0 -8 5 -11 10 -3 6 -1 10 4 10 6 0 11 -4 11 -10z m-70 -36 c0
-19 -4 -33 -9 -29 -5 3 -17 -5 -25 -17 -20 -27 -21 -49 -2 -23 12 17 13 16 12
-13 0 -18 -6 -32 -12 -32 -7 0 -14 -7 -18 -15 -4 -11 -14 -14 -33 -10 -23 4
-24 4 -8 -4 18 -8 16 -10 -17 -25 -21 -9 -41 -16 -45 -16 -4 0 -61 -21 -126
-46 l-119 -47 -24 29 c-29 36 -31 79 -4 94 13 7 20 21 20 39 0 26 5 30 48 41
26 6 112 33 192 60 80 27 151 49 158 49 7 1 12 -12 12 -35z m89 -44 c10 -7 51
-80 46 -80 -9 0 -65 89 -64 102 0 9 2 8 6 -2 3 -8 9 -17 12 -20z m-60 -46
c-17 -20 -39 -17 -39 5 0 23 20 32 38 18 9 -7 9 -13 1 -23z m-622 4 c-3 -8 -6
-5 -6 6 -1 11 2 17 5 13 3 -3 4 -12 1 -19z m813 -28 c0 -5 -4 -10 -10 -10 -5
0 -10 5 -10 10 0 6 5 10 10 10 6 0 10 -4 10 -10z m-848 -50 c-26 -24 -28 -52
-7 -70 17 -14 21 -60 5 -60 -15 0 -50 -42 -50 -62 0 -10 9 -26 20 -35 29 -26
27 -85 -5 -117 -29 -29 -31 -44 -10 -72 24 -32 18 -44 -23 -44 -36 0 -39 2
-40 33 -3 77 -24 130 -48 120 -13 -5 -64 42 -64 58 0 5 10 14 22 20 13 7 27
17 33 23 14 15 19 50 6 41 -8 -4 -8 1 -2 17 5 13 12 39 16 58 5 35 43 70 119
112 40 21 59 6 28 -22z m888 -5 c0 -8 -7 -15 -15 -15 -8 0 -15 7 -15 15 0 8 7
15 15 15 8 0 15 -7 15 -15z m-65 -15 c10 -11 14 -20 10 -20 -4 0 -2 -8 6 -18
8 -10 2 -5 -13 10 -16 15 -30 28 -33 28 -27 0 -29 1 -15 10 21 13 24 13 45
-10z m335 -20 c0 -13 -1 -13 -10 0 -5 8 -10 22 -10 30 0 13 1 13 10 0 5 -8 10
-22 10 -30z m845 20 c3 -5 1 -10 -4 -10 -6 0 -11 5 -11 10 0 6 2 10 4 10 3 0
8 -4 11 -10z m-1232 -36 c7 -8 -16 -33 -25 -28 -9 6 1 34 11 34 4 0 10 -3 14
-6z m703 -24 c8 0 14 -4 14 -10 0 -13 -16 -13 -42 1 -17 9 -18 13 -7 20 8 5
15 4 17 -1 2 -6 10 -10 18 -10z m-1686 -10 c0 -5 -7 -10 -15 -10 -8 0 -15 5
-15 10 0 6 7 10 15 10 8 0 15 -4 15 -10z m2748 -15 c-3 -3 -9 2 -12 12 -6 14
-5 15 5 6 7 -7 10 -15 7 -18z m-1423 5 c3 -5 -2 -10 -12 -11 -10 0 -44 -4 -76
-8 -32 -4 -60 -4 -63 1 -3 4 7 8 23 9 15 0 37 4 48 9 28 12 73 12 80 0z m-334
-65 c9 6 13 -9 9 -30 -1 -5 8 -1 19 9 11 10 24 16 28 15 5 -2 -15 -23 -43 -46
l-52 -42 2 32 c1 19 6 31 13 30 9 -2 10 4 3 21 -5 13 -6 27 -2 31 4 4 8 0 10
-9 2 -9 8 -14 13 -11z m-137 3 c-5 -8 -2 -9 9 -5 30 11 -3 -28 -47 -57 -43
-28 -86 -38 -51 -12 11 8 23 12 27 10 5 -3 8 0 8 5 0 6 7 11 16 11 8 0 12 5 9
10 -3 6 1 10 10 10 11 0 15 5 12 14 -3 8 -3 17 0 20 10 10 15 7 7 -6z m376
-83 c6 -3 8 -10 5 -15 -3 -4 7 -11 21 -14 21 -6 23 -10 14 -21 -6 -8 -21 -15
-33 -17 -12 -2 -20 -7 -17 -13 2 -5 11 -9 18 -7 32 8 -2 -18 -36 -27 -67 -17
-125 -24 -119 -14 4 6 -14 10 -42 9 -27 -1 -47 -4 -44 -8 2 -5 -3 -8 -11 -8
-8 0 -18 5 -21 10 -7 12 3 51 13 47 4 -1 21 13 38 31 18 18 51 38 75 45 44 13
119 14 139 2z m674 -28 c-5 -8 -3 -8 7 1 18 17 29 15 29 -6 0 -11 -8 -18 -22
-19 -13 -1 -32 -14 -44 -28 -11 -15 -29 -27 -38 -29 -10 -1 -21 -7 -24 -12
-10 -13 -50 -34 -66 -34 -7 0 -19 -13 -26 -30 -17 -42 -36 -56 -55 -40 -10 9
-15 9 -15 1 0 -6 -8 -11 -19 -11 -10 0 -24 -7 -32 -16 -11 -13 -9 -14 12 -9
18 4 33 -1 53 -18 26 -23 29 -47 5 -47 -6 0 -18 -7 -27 -16 -20 -20 -30 -1
-12 21 17 20 -4 20 -24 -1 -18 -17 -21 -28 -6 -19 6 3 10 2 10 -4 0 -11 -32
-31 -50 -31 -6 0 -8 4 -5 10 3 5 1 10 -5 10 -18 0 -5 63 22 105 14 23 43 54
64 70 22 16 48 37 58 47 11 10 26 18 34 18 7 0 21 7 30 16 10 11 17 13 20 5 2
-6 8 -11 14 -11 5 0 8 6 6 12 -5 15 70 80 83 72 5 -3 9 0 9 6 0 6 5 8 10 5 6
-4 7 -12 4 -18z m-1014 -37 c0 -5 -2 -10 -4 -10 -3 0 -8 5 -11 10 -3 6 -1 10
4 10 6 0 11 -4 11 -10z m645 -31 c20 -16 106 -21 121 -6 4 4 12 7 18 7 6 0 -2
-12 -19 -26 -64 -54 -81 -71 -103 -98 -21 -28 -22 -28 -72 -16 -31 7 -54 20
-61 31 -6 12 -15 17 -22 12 -9 -5 -9 -3 0 8 6 8 11 16 12 19 0 18 15 39 23 34
6 -4 14 0 19 7 4 8 16 14 25 14 10 0 19 6 21 13 3 6 0 12 -6 12 -6 0 -11 7
-11 16 0 17 4 16 55 -27z m-635 -26 c-11 -17 -11 -17 -6 0 3 10 6 24 7 30 0 9
2 9 5 0 3 -7 0 -20 -6 -30z m-918 -14 c-3 -28 0 -44 9 -50 11 -7 9 -13 -10
-31 -22 -21 -23 -21 -16 -3 4 11 7 44 6 73 -1 28 2 52 6 52 5 0 7 -19 5 -41z
m1328 -9 c37 -34 67 -57 83 -63 31 -12 19 -30 -15 -24 -18 3 -51 8 -73 12 -31
5 -44 13 -58 38 -18 30 -18 32 -1 44 21 16 42 13 64 -7z m-1803 -22 c-3 -8 -6
-5 -6 6 -1 11 2 17 5 13 3 -3 4 -12 1 -19z m2248 -18 c-3 -5 -12 -10 -18 -10
-7 0 -6 4 3 10 19 12 23 12 15 0z m161 -35 c-11 -8 -25 -15 -30 -15 -6 1 0 7
14 15 32 19 40 18 16 0z m-2208 -13 c6 -18 -15 -14 -22 4 -4 10 -1 14 6 12 6
-2 14 -10 16 -16z m2629 -34 c-3 -7 -5 -2 -5 12 0 14 2 19 5 13 2 -7 2 -19 0
-25z m-1617 -8 c-19 -12 -30 -12 -30 -1 0 10 31 20 40 14 2 -2 -2 -8 -10 -13z
m-852 -6 c44 -4 47 -5 23 -15 -25 -10 -51 3 -51 25 0 7 3 7 8 1 4 -5 13 -10
20 -11z m1478 -15 c3 -6 2 -15 -4 -21 -7 -7 -15 0 -27 22 -16 31 -16 31 4 21
11 -6 23 -16 27 -22z m153 22 c11 -7 12 -15 5 -31 -9 -21 -9 -21 -32 -2 -13
11 -34 19 -47 17 -24 -2 -32 5 -18 18 9 10 76 8 92 -2z m-1299 -11 c0 -5 -4
-10 -10 -10 -5 0 -10 5 -10 10 0 6 5 10 10 10 6 0 10 -4 10 -10z m1649 -42
c-4 -30 2 -49 12 -43 6 4 8 13 5 21 -3 8 1 14 8 14 28 0 27 -54 -1 -64 -26
-11 -49 29 -38 65 7 21 17 26 14 7z m336 2 c-3 -5 -11 -10 -16 -10 -6 0 -7 5
-4 10 3 6 11 10 16 10 6 0 7 -4 4 -10z m-395 -25 c-7 -18 -5 -28 5 -39 19 -19
19 -27 -1 -19 -21 8 -34 44 -22 66 14 27 29 21 18 -8z m30 -15 c0 -11 -4 -20
-10 -20 -5 0 -10 9 -10 20 0 11 5 20 10 20 6 0 10 -9 10 -20z"/>
<path d="M930 4540 c0 -5 7 -10 15 -10 8 0 15 5 15 10 0 6 -7 10 -15 10 -8 0
-15 -4 -15 -10z"/>
<path d="M896 4485 c-3 -8 -1 -15 4 -15 6 0 10 7 10 15 0 8 -2 15 -4 15 -2 0
-6 -7 -10 -15z"/>
<path d="M960 4440 c0 -5 5 -10 10 -10 6 0 10 5 10 10 0 6 -4 10 -10 10 -5 0
-10 -4 -10 -10z"/>
<path d="M846 4215 c-3 -8 -13 -15 -21 -15 -9 0 -13 4 -10 10 3 5 0 7 -9 4 -8
-3 -12 -12 -9 -20 3 -8 0 -20 -6 -28 -6 -7 -9 -20 -7 -27 3 -8 10 -33 16 -57
6 -23 15 -40 20 -37 6 4 10 0 10 -7 0 -23 16 -39 33 -32 22 8 21 20 -3 44 -11
11 -20 26 -20 33 0 6 5 4 11 -5 10 -18 39 -25 39 -9 0 5 -7 14 -15 21 -23 19
-18 37 10 43 14 2 23 2 21 -1 -3 -2 1 -14 9 -26 8 -11 15 -31 15 -44 0 -13 14
-35 32 -53 41 -37 114 -41 143 -9 22 24 40 26 31 4 -3 -8 -2 -13 3 -10 5 3 14
-1 21 -8 8 -11 9 -20 0 -36 -9 -17 -17 -20 -42 -15 -41 9 -29 -7 22 -30 34
-15 45 -16 61 -7 11 7 19 8 19 2 0 -5 -18 -15 -40 -21 -25 -8 -37 -16 -31 -22
11 -11 83 10 94 29 4 7 14 11 22 8 11 -4 13 3 10 33 -5 54 -16 93 -26 93 -5 0
-9 5 -9 11 0 10 -40 50 -94 96 -49 41 -221 103 -245 88 -6 -3 -19 -1 -30 4
-14 8 -20 7 -25 -4z m319 -155 c27 -38 60 -119 52 -127 -2 -2 -16 23 -30 55
-17 41 -41 73 -78 106 l-54 47 41 -21 c23 -11 54 -38 69 -60z m-78 14 c8 -22
-15 -43 -27 -24 -5 8 -10 21 -10 28 0 17 30 15 37 -4z m-103 -20 c8 -22 -4
-40 -15 -23 -11 18 -11 39 0 39 5 0 12 -7 15 -16z"/>
<path d="M1640 3630 c0 -5 5 -10 10 -10 6 0 10 5 10 10 0 6 -4 10 -10 10 -5 0
-10 -4 -10 -10z"/>
<path d="M1055 3476 c-28 -19 -30 -25 -25 -61 3 -22 12 -50 18 -62 17 -30 36
-30 26 -1 -6 20 -5 21 9 10 9 -8 20 -11 25 -8 5 3 19 -5 31 -18 17 -18 21 -31
16 -48 -9 -29 -44 -68 -62 -68 -18 0 -16 -14 5 -33 24 -22 31 -21 25 1 -6 25
27 53 55 45 17 -4 22 -13 22 -39 0 -47 17 -43 25 6 8 48 30 63 83 54 43 -7 62
7 42 31 -9 11 -27 13 -74 8 l-63 -6 -47 62 c-49 63 -76 76 -95 44 -9 -15 -10
-12 -11 15 0 18 7 44 16 58 22 33 15 36 -21 10z"/>
<path d="M1193 3403 c-21 -7 -15 -21 22 -58 34 -35 51 -41 70 -27 20 14 14 30
-14 40 -16 6 -37 19 -47 30 -11 10 -25 17 -31 15z"/>
<path d="M2070 3380 c0 -6 7 -10 15 -10 8 0 15 2 15 4 0 2 -7 6 -15 10 -8 3
-15 1 -15 -4z"/>
<path d="M2070 3347 c0 -10 8 -17 18 -17 9 0 13 4 7 8 -5 4 -13 11 -17 16 -5
5 -8 2 -8 -7z"/>
<path d="M1420 3288 c0 -34 -15 -51 -47 -53 -15 -1 -38 -3 -51 -3 -42 -3 -13
-20 35 -20 37 0 52 5 75 28 33 34 38 70 8 70 -14 0 -20 -7 -20 -22z"/>
<path d="M830 3277 c-36 -12 -43 -31 -13 -33 10 -1 39 -11 65 -23 59 -26 59
-26 45 4 -7 14 -16 25 -20 25 -5 0 -16 9 -25 19 -15 17 -21 18 -52 8z"/>
<path d="M973 3188 c2 -7 9 -13 15 -13 6 0 17 -6 24 -13 11 -11 10 -12 -4 -7
-10 4 -18 5 -18 2 0 -10 86 -95 105 -105 35 -17 135 -3 135 19 0 5 -6 9 -14 9
-8 0 -21 6 -28 13 -7 8 -27 17 -43 21 -17 4 -42 19 -57 33 -15 15 -30 24 -33
21 -11 -10 6 -33 37 -51 17 -10 28 -20 24 -24 -11 -11 -53 18 -67 46 -7 14
-20 34 -28 44 -16 20 -55 23 -48 5z"/>
<path d="M1006 3051 c-11 -17 68 -70 97 -67 53 6 47 17 -16 30 -15 4 -35 15
-45 26 -18 22 -28 25 -36 11z"/>
<path d="M1286 3021 c-6 -9 56 -42 104 -56 14 -4 28 -13 33 -19 12 -18 26 14
17 38 -4 12 -15 20 -25 18 -9 -2 -22 1 -28 6 -18 14 -95 24 -101 13z"/>
<path d="M950 2920 c0 -11 33 -37 57 -44 28 -9 42 13 17 28 -25 15 -74 25 -74
16z"/>
<path d="M620 2763 c-43 -13 -45 -15 -21 -24 15 -6 28 -6 34 0 13 13 5 29 -13
24z"/>
<path d="M587 2723 c-9 -9 -9 -43 1 -43 18 1 34 19 29 34 -7 17 -19 21 -30 9z"/>
<path d="M585 2660 c4 -6 11 -8 16 -5 14 9 11 15 -7 15 -8 0 -12 -5 -9 -10z"/>
<path d="M1203 2485 c0 -8 4 -12 9 -9 4 3 8 9 8 15 0 5 -4 9 -8 9 -5 0 -9 -7
-9 -15z"/>
<path d="M340 2477 c0 -15 41 -81 77 -123 41 -48 66 -95 84 -157 6 -21 5 -27
-4 -24 -7 2 -11 14 -9 27 2 19 0 21 -13 10 -8 -7 -12 -17 -8 -24 4 -6 8 -15 9
-21 3 -27 17 -54 25 -49 5 3 6 -2 3 -10 -3 -9 -1 -16 5 -16 6 0 11 -5 11 -11
0 -7 7 -17 15 -23 8 -6 22 -42 31 -81 16 -73 47 -155 40 -105 -21 133 -78 337
-117 415 -16 33 -48 80 -70 105 -22 24 -42 54 -45 67 -4 13 -12 23 -20 23 -8
0 -14 -2 -14 -3z m169 -328 c-14 -8 -29 -3 -29 11 0 4 9 6 21 3 15 -4 17 -8 8
-14z"/>
<path d="M462 2399 c35 -67 56 -93 117 -143 40 -33 85 -63 99 -66 14 -3 26
-13 28 -23 1 -10 9 -26 18 -36 8 -9 24 -37 35 -61 12 -27 21 -37 21 -25 0 11
-13 44 -29 72 l-29 53 24 -6 c33 -9 30 2 -7 21 -51 27 -79 57 -145 157 -35 53
-69 100 -75 104 -20 12 75 -148 115 -195 27 -31 5 -19 -56 31 -25 21 -69 74
-98 118 -28 44 -53 80 -56 80 -3 0 14 -37 38 -81z"/>
<path d="M915 2451 c-6 -11 9 -23 19 -14 9 9 7 23 -3 23 -6 0 -12 -4 -16 -9z"/>
<path d="M1430 2430 c0 -6 7 -10 15 -10 8 0 15 2 15 4 0 2 -7 6 -15 10 -8 3
-15 1 -15 -4z"/>
<path d="M905 2410 c-3 -5 -2 -10 4 -10 5 0 13 5 16 10 3 6 2 10 -4 10 -5 0
-13 -4 -16 -10z"/>
<path d="M1435 2400 c3 -5 8 -10 11 -10 2 0 4 5 4 10 0 6 -5 10 -11 10 -5 0
-7 -4 -4 -10z"/>
<path d="M406 2314 c6 -36 34 -68 47 -55 11 11 -3 39 -32 65 -20 18 -20 18
-15 -10z"/>
<path d="M447 2243 c-12 -11 -8 -23 8 -23 8 0 15 7 15 15 0 16 -12 20 -23 8z"/>
<path d="M1876 2241 c-6 -10 -105 -70 -186 -114 -63 -33 -76 -44 -67 -53 3 -3
18 2 34 13 15 10 44 26 63 36 19 9 46 24 60 33 14 10 -9 -17 -50 -59 -41 -42
-91 -85 -110 -96 -34 -20 -151 -131 -137 -131 4 0 25 16 47 36 23 21 67 55 99
78 60 42 281 245 281 259 0 10 -28 9 -34 -2z"/>
<path d="M237 2223 c-13 -13 -7 -21 13 -16 11 3 17 9 14 14 -6 11 -18 12 -27
2z"/>
<path d="M1503 2120 c-23 -41 -39 -56 -87 -80 -77 -39 -111 -39 -153 2 -37 36
-58 31 -24 -6 13 -14 22 -29 20 -34 -3 -5 -38 -2 -86 7 -46 9 -83 16 -83 14 0
-5 93 -43 106 -43 26 0 14 -29 -13 -33 l-28 -4 26 -2 c40 -2 43 -27 10 -60
-17 -16 -27 -32 -23 -37 4 -4 -1 -4 -10 -1 -21 7 -29 -20 -14 -46 8 -13 7 -20
-4 -27 -10 -7 -11 -10 -2 -10 6 0 22 12 35 27 68 83 161 171 225 213 53 35 84
64 108 101 32 50 40 69 30 69 -3 0 -17 -23 -33 -50z m-168 -140 c-3 -5 -12
-10 -18 -10 -7 0 -6 4 3 10 19 12 23 12 15 0z m-161 -165 c-7 -16 -24 -21 -24
-6 0 8 7 13 27 20 1 1 0 -6 -3 -14z"/>
<path d="M290 1971 c0 -6 4 -13 10 -16 6 -3 7 1 4 9 -7 18 -14 21 -14 7z"/>
<path d="M1695 1880 c-3 -5 -1 -10 4 -10 6 0 11 5 11 10 0 6 -2 10 -4 10 -3 0
-8 -4 -11 -10z"/>
<path d="M1601 1857 c-6 -8 -8 -17 -4 -20 11 -12 23 -8 23 7 0 8 8 17 18 19
13 4 13 5 -4 6 -12 0 -27 -5 -33 -12z"/>
<path d="M1110 1721 c0 -5 5 -13 10 -16 6 -3 10 -2 10 4 0 5 -4 13 -10 16 -5
3 -10 2 -10 -4z"/>
<path d="M1082 1688 c-15 -15 -16 -28 -2 -28 6 0 10 6 10 14 0 8 6 17 13 19 6
3 7 6 2 6 -6 1 -16 -4 -23 -11z"/>
<path d="M3301 2074 c0 -11 3 -14 6 -6 3 7 2 16 -1 19 -3 4 -6 -2 -5 -13z"/>
<path d="M1009 1463 c-28 -7 -45 -77 -29 -118 9 -23 15 -27 40 -23 16 3 31 1
32 -4 2 -4 19 -3 38 2 19 6 61 8 93 5 31 -3 57 -3 57 1 0 18 -40 33 -87 34
-28 0 -55 5 -58 10 -3 6 -15 10 -27 10 -11 0 -22 8 -25 20 -3 11 -10 20 -15
20 -6 0 -7 11 -4 25 4 14 5 24 4 24 -2 -1 -10 -3 -19 -6z m61 -99 c0 -2 -7 -4
-15 -4 -8 0 -15 4 -15 10 0 5 7 7 15 4 8 -4 15 -8 15 -10z"/>
<path d="M1060 1430 c0 -5 5 -10 10 -10 6 0 10 5 10 10 0 6 -4 10 -10 10 -5 0
-10 -4 -10 -10z"/>
<path d="M1555 1400 c3 -5 11 -10 16 -10 6 0 7 5 4 10 -3 6 -11 10 -16 10 -6
0 -7 -4 -4 -10z"/>
<path d="M1605 1400 c3 -5 10 -10 16 -10 5 0 9 5 9 10 0 6 -7 10 -16 10 -8 0
-12 -4 -9 -10z"/>
<path d="M1450 1369 c0 -5 5 -7 10 -4 6 3 10 8 10 11 0 2 -4 4 -10 4 -5 0 -10
-5 -10 -11z"/>
<path d="M970 1251 c0 -10 7 -22 16 -25 10 -4 13 -13 9 -26 -5 -14 -2 -20 9
-20 21 0 20 25 -1 61 -20 33 -33 37 -33 10z"/>
<path d="M1012 1172 c-10 -7 -6 -15 14 -35 14 -15 31 -24 36 -21 7 4 7 9 0 13
-5 3 -12 16 -16 29 -8 24 -14 26 -34 14z"/>
<path d="M1076 1061 c-3 -5 1 -14 8 -20 12 -10 13 -8 9 8 -6 23 -9 25 -17 12z"/>
<path d="M1111 1005 c1 -19 18 -51 18 -35 0 8 -4 22 -9 30 -5 8 -9 11 -9 5z"/>
<path d="M1145 940 c3 -5 8 -10 11 -10 2 0 4 5 4 10 0 6 -5 10 -11 10 -5 0 -7
-4 -4 -10z"/>
<path d="M1861 1573 c-1 -18 5 -23 24 -23 14 0 25 5 25 10 0 6 -9 10 -19 10
-11 0 -22 6 -24 13 -3 6 -6 2 -6 -10z"/>
<path d="M820 1309 c0 -5 5 -7 10 -4 6 3 10 8 10 11 0 2 -4 4 -10 4 -5 0 -10
-5 -10 -11z"/>
<path d="M855 1310 c3 -5 8 -10 11 -10 2 0 4 5 4 10 0 6 -5 10 -11 10 -5 0 -7
-4 -4 -10z"/>
<path d="M1727 1175 c10 -13 24 -25 30 -25 8 0 4 10 -9 25 -28 32 -44 33 -21
0z"/>
<path d="M970 1041 c0 -6 4 -13 10 -16 6 -3 7 1 4 9 -7 18 -14 21 -14 7z"/>
<path d="M3095 1070 c-3 -5 3 -10 15 -10 12 0 18 5 15 10 -3 6 -10 10 -15 10
-5 0 -12 -4 -15 -10z"/>
<path d="M2878 703 c7 -3 16 -2 19 1 4 3 -2 6 -13 5 -11 0 -14 -3 -6 -6z"/>
<path d="M2660 679 c0 -5 5 -7 10 -4 6 3 10 8 10 11 0 2 -4 4 -10 4 -5 0 -10
-5 -10 -11z"/>
<path d="M2890 580 c0 -5 7 -7 15 -4 8 4 15 8 15 10 0 2 -7 4 -15 4 -8 0 -15
-4 -15 -10z"/>
<path d="M2790 509 c0 -5 5 -7 10 -4 6 3 10 8 10 11 0 2 -4 4 -10 4 -5 0 -10
-5 -10 -11z"/>
<path d="M2795 459 c-4 -6 -5 -12 -2 -15 2 -3 7 2 10 11 7 17 1 20 -8 4z"/>
<path d="M1541 749 c-12 -12 -20 -24 -16 -27 3 -3 10 -1 16 5 6 6 18 9 25 6 9
-3 14 2 14 16 0 27 -10 27 -39 0z"/>
<path d="M1481 706 c-13 -7 -20 -15 -15 -18 12 -6 58 18 47 25 -4 3 -19 0 -32
-7z"/>
<path d="M1645 770 c-3 -5 -1 -10 4 -10 6 0 11 5 11 10 0 6 -2 10 -4 10 -3 0
-8 -4 -11 -10z"/>
<path d="M1975 355 c-5 -2 -27 -6 -48 -10 -42 -7 -43 -23 0 -20 15 1 38 3 51
3 12 1 22 9 22 17 0 15 -5 17 -25 10z"/>
<path d="M2484 255 c-7 -13 -8 -29 -3 -37 6 -9 9 -7 9 9 0 12 6 23 13 26 8 3
9 8 2 15 -7 8 -13 4 -21 -13z"/>
<path d="M2310 316 c0 -9 5 -16 10 -16 6 0 10 4 10 9 0 6 -4 13 -10 16 -5 3
-10 -1 -10 -9z"/>
<path d="M2200 4606 c0 -2 7 -9 15 -16 13 -11 14 -10 9 4 -5 14 -24 23 -24 12z"/>
<path d="M0 2146 c0 -9 30 -14 35 -6 4 6 -3 10 -14 10 -12 0 -21 -2 -21 -4z"/>
<path d="M38 2113 c7 -3 16 -2 19 1 4 3 -2 6 -13 5 -11 0 -14 -3 -6 -6z"/>
<path d="M40 2094 c0 -5 7 -18 15 -28 12 -16 15 -17 15 -4 0 8 -7 21 -15 28
-8 7 -15 9 -15 4z"/>
<path d="M90 2030 c0 -5 5 -10 11 -10 6 0 8 -7 4 -17 -4 -13 -3 -15 5 -7 6 6
8 18 4 27 -7 18 -24 23 -24 7z"/>
<path d="M130 1956 c0 -2 8 -10 18 -17 15 -13 16 -12 3 4 -13 16 -21 21 -21
13z"/>
<path d="M237 1630 c3 -10 20 -31 38 -45 19 -14 36 -33 40 -43 3 -11 31 -36
63 -58 31 -21 64 -45 72 -54 31 -31 84 -63 116 -70 33 -8 40 -3 35 24 -1 5 5
4 13 -4 14 -11 16 -9 16 9 0 12 5 19 10 16 6 -3 10 -1 10 4 0 6 8 11 18 12 15
0 15 1 1 7 -10 4 -14 15 -12 27 3 11 7 36 9 55 l4 35 -14 -35 c-11 -28 -15
-32 -21 -17 -4 9 -11 17 -15 17 -10 0 -1 -40 12 -57 5 -7 5 -14 -1 -17 -5 -4
-12 2 -16 11 -9 27 -53 56 -73 47 -36 -16 -79 -12 -129 12 -28 13 -54 32 -57
40 -3 9 -12 14 -20 11 -8 -3 -16 2 -19 12 -2 10 -18 24 -36 32 -18 8 -31 21
-31 31 0 10 -4 18 -9 18 -5 0 -7 -9 -4 -20z m333 -160 c0 -5 -7 -10 -16 -10
-8 0 -12 5 -9 10 3 6 10 10 16 10 5 0 9 -4 9 -10z m40 -41 c0 -4 -9 -7 -20 -6
-11 1 -20 7 -20 13 0 7 8 10 20 7 11 -3 20 -9 20 -14z"/>
<path d="M3640 1056 c0 -2 7 -7 16 -10 8 -3 12 -2 9 4 -6 10 -25 14 -25 6z"/>
<path d="M3704 1034 c14 -15 26 -33 26 -40 0 -8 5 -14 10 -14 6 0 10 -7 10
-16 0 -12 6 -15 21 -11 15 4 19 2 15 -9 -4 -9 4 -19 19 -26 14 -6 25 -15 25
-20 0 -16 29 -40 40 -33 5 3 10 0 10 -7 0 -13 57 -44 66 -36 10 10 -9 38 -24
36 -25 -4 -27 28 -2 35 18 5 19 8 9 31 -7 14 -16 23 -20 20 -14 -9 -10 6 6 22
8 9 15 21 15 27 0 7 -5 4 -11 -5 -7 -13 -17 -16 -40 -11 -29 6 -31 4 -24 -18
6 -19 -1 -15 -39 21 -26 25 -53 45 -59 45 -7 0 -23 8 -37 18 -37 26 -46 21
-16 -9z"/>
<path d="M67 558 c-25 -51 -50 -111 -56 -133 -6 -22 -11 -125 -11 -232 l0
-193 29 0 c27 0 29 2 35 58 3 31 7 70 9 85 2 18 -1 26 -9 23 -8 -3 -9 5 -3 32
5 20 6 45 3 56 -4 11 -2 16 4 12 5 -3 13 1 16 10 3 8 2 13 -3 10 -5 -3 -11 1
-15 9 -3 8 -1 17 5 20 5 4 7 10 4 15 -2 4 6 38 20 75 14 41 22 78 19 95 -4 15
-1 31 5 34 5 4 7 14 4 23 -5 12 -2 15 8 11 11 -4 15 4 17 38 1 24 -2 44 -7 44
-5 0 -7 -9 -4 -20 3 -11 1 -20 -5 -20 -6 0 -14 -9 -17 -21 -4 -11 -9 -18 -12
-15 -3 3 2 17 12 32 11 17 13 30 7 36 -6 6 -25 -23 -55 -84z"/>
<path d="M90 330 c0 -5 5 -10 10 -10 6 0 10 5 10 10 0 6 -4 10 -10 10 -5 0
-10 -4 -10 -10z"/>
<path d="M1152 259 c2 -6 8 -10 13 -10 5 0 11 4 13 10 2 6 -4 11 -13 11 -9 0
-15 -5 -13 -11z"/>
<path d="M1159 228 c0 -2 -2 -18 -5 -36 -2 -19 -11 -43 -19 -55 -24 -35 -19
-80 13 -110 30 -29 42 -33 42 -17 0 6 9 19 21 31 28 28 23 90 -8 104 -21 9
-28 28 -24 62 1 10 -18 30 -20 21z m6 -127 c-3 -6 -11 -11 -17 -11 -6 0 -6 6
2 15 14 17 26 13 15 -4z"/>
<path d="M1750 176 c0 -2 7 -7 16 -10 8 -3 12 -2 9 4 -6 10 -25 14 -25 6z"/>
<path d="M1700 125 c7 -9 15 -13 17 -11 7 7 -7 26 -19 26 -6 0 -6 -6 2 -15z"/>
<path d="M132 49 c5 -14 21 -14 26 0 2 6 -4 11 -13 11 -9 0 -15 -5 -13 -11z"/>
<path d="M80 33 c1 -18 18 -35 24 -24 4 6 4 16 1 21 -7 12 -25 13 -25 3z"/>
</g>
</svg>
